<svg data-v-423bf9ae="" xmlns="http://www.w3.org/2000/svg" viewBox="0 0 447 90" class="iconLeft"><!----><!----><!----><g data-v-423bf9ae="" id="8538436d-213e-498c-a840-1f57a3c6cfd4" fill="white" transform="matrix(4.74660062789917,0,0,4.74660062789917,137.08718872070312,-5.877625465393066)"><path d="M3.56 13.65L4.77 13.65L4.77 10.07L7.94 4.40L6.62 4.40L4.19 8.78L1.61 4.40L0.20 4.40L3.56 10.08ZM13.36 13.75L13.58 12.77C12.73 12.92 12.78 12.42 12.78 11.91L12.78 9.37C12.78 7.74 12.11 7.03 10.46 7.03C8.60 7.03 7.74 7.81 7.90 9.04L9.00 9.24C8.93 8.29 9.51 7.95 10.37 7.95C11.37 7.95 11.66 8.41 11.66 9.52L11.66 9.88C9.24 9.90 7.67 10.64 7.67 12.11C7.67 13.29 8.67 13.85 9.70 13.85C10.71 13.85 11.47 13.29 11.77 12.71C11.82 13.30 12.14 13.90 13.36 13.75ZM11.66 11.42C11.61 12.25 10.77 12.92 9.91 12.92C9.25 12.92 8.88 12.57 8.88 12.03C8.88 11.20 9.69 10.75 11.66 10.74ZM15.02 16.84L16.14 16.84L16.14 12.96C16.52 13.50 17.21 13.85 18.02 13.85C19.89 13.85 20.86 12.24 20.86 10.23C20.86 8.62 20.27 7.03 18.27 7.03C17.28 7.03 16.53 7.49 16.10 8.15L16.10 7.22L15.02 7.22ZM17.92 12.92C16.56 12.92 16.14 11.59 16.14 10.50C16.14 9.39 16.55 7.95 18.03 7.95C19.31 7.95 19.66 8.89 19.66 10.32C19.66 11.63 19.36 12.92 17.92 12.92ZM22.62 16.84L23.74 16.84L23.74 12.96C24.12 13.50 24.81 13.85 25.62 13.85C27.50 13.85 28.46 12.24 28.46 10.23C28.46 8.62 27.87 7.03 25.87 7.03C24.88 7.03 24.14 7.49 23.70 8.15L23.70 7.22L22.62 7.22ZM25.52 12.92C24.16 12.92 23.74 11.59 23.74 10.50C23.74 9.39 24.15 7.95 25.63 7.95C26.91 7.95 27.26 8.89 27.26 10.32C27.26 11.63 26.96 12.92 25.52 12.92ZM29.29 16.58C29.55 16.79 29.99 17.04 30.65 17.04C32.28 17.04 32.70 15.57 32.83 14.73L33.00 13.52L35.50 7.22L34.40 7.22L32.87 11.19C32.75 11.49 32.62 11.89 32.52 12.18C32.42 11.89 32.27 11.47 32.16 11.19L30.52 7.22L29.30 7.22L31.99 13.52L31.86 14.50C31.74 15.57 31.21 16.11 30.67 16.11C30.35 16.11 30.04 15.96 29.82 15.75ZM40.19 13.65L43.13 13.65C45.44 13.65 46.49 12.47 46.49 11.00C46.49 9.94 45.93 9.13 44.79 8.85L44.79 8.79C45.40 8.57 46.06 7.92 46.06 6.73C46.06 4.93 44.56 4.40 43.04 4.40L40.19 4.40ZM41.41 12.61L41.41 9.44L43.18 9.44C44.25 9.44 45.18 9.80 45.18 11.02C45.18 11.97 44.60 12.61 42.97 12.61ZM41.41 8.40L41.41 5.43L42.85 5.43C44.18 5.43 44.73 5.92 44.73 6.92C44.73 7.90 44.21 8.40 43.13 8.40ZM50.96 13.85C53.05 13.85 53.93 12.32 53.93 10.33C53.93 8.25 52.93 7.03 50.96 7.03C48.92 7.03 47.96 8.44 47.96 10.33C47.96 12.47 48.85 13.85 50.96 13.85ZM50.96 12.92C49.80 12.92 49.17 12.08 49.17 10.47C49.17 8.88 49.80 7.95 50.96 7.95C52.11 7.95 52.72 8.85 52.72 10.47C52.72 11.96 52.11 12.92 50.96 12.92ZM54.91 8.12L56.00 8.12L56.00 11.76C56.00 12.78 56.31 13.79 57.58 13.79C58.55 13.79 59.00 13.22 59.29 12.50L58.44 12.12C58.30 12.63 58.07 12.87 57.72 12.87C57.27 12.87 57.12 12.50 57.12 11.70L57.12 8.12L58.94 8.12L58.94 7.22L57.12 7.22L57.12 5.32L56.10 5.32L56.03 7.22L54.91 7.22ZM60.16 11.86C60.02 13.27 61.45 13.85 62.75 13.85C64.22 13.85 65.28 13.12 65.28 11.84C65.28 9.46 61.52 10.36 61.52 8.75C61.52 8.20 61.99 7.95 62.72 7.95C63.87 7.95 64.04 8.64 63.95 9.09L65.07 8.89C65.30 7.64 64.13 7.03 62.78 7.03C61.15 7.03 60.37 7.87 60.37 8.95C60.37 11.28 64.11 10.49 64.11 12.05C64.11 12.64 63.53 12.92 62.71 12.92C61.63 12.92 61.15 12.38 61.22 11.69Z"></path></g><!----><g data-v-423bf9ae="" id="f6c1284b-649d-43a7-88b2-38999799a094" transform="matrix(1.4754098653793335,0,0,1.4754098653793335,-13.770493507385254,-28.270492553710938)" stroke="none" fill="white"><path d="M71.8 65H70c-6.4 0-10.2-6.5-15.5-17.2C49.1 37.1 43.1 25 30 25h-1.3c-1.7-3-5-5-8.7-5-5.5 0-10 4.5-10 10s4.5 10 10 10c3.7 0 6.9-2 8.7-5H30c6.4 0 10.2 6.5 15.5 17.2C50.9 62.9 56.9 75 70 75h1.8v5.5L90 70 71.8 59.5V65zM20 36c-3.3 0-6-2.7-6-6s2.7-6 6-6 6 2.7 6 6-2.7 6-6 6zm29.6-1h22.2v5.5L90 30 71.8 19.5V25H38.9c4.4 2.1 7.9 5.8 10.7 10z"></path></g><!----></svg>